<svg width="51" height="53" viewBox="0 0 51 53" fill="none" xmlns="http://www.w3.org/2000/svg">
<path fill-rule="evenodd" clip-rule="evenodd" d="M11.4184 36.6511L9.35073 39.7421C4.29834 33.1846 3.63537 24.4529 7.14697 16.9766C10.3816 10.09 16.7245 5.08078 24.3523 4.19115C31.0839 3.40603 35.0605 5.26937 35.6708 9.69133C36.1083 12.8609 34.3854 15.2607 31.0907 16.8164C28.9526 17.826 26.1851 18.6868 22.8072 19.4664C17.692 20.647 14.3199 23.036 12.4951 26.4853C10.8333 29.6263 10.3851 33.2568 11.4184 36.6511L11.4184 36.6511Z" fill="#0C79AD"/>
<path fill-rule="evenodd" clip-rule="evenodd" d="M11.4183 36.6512L9.35072 39.7422C8.54325 38.6941 7.84843 37.5904 7.26431 36.4452C6.39129 31.6001 6.73064 27.7098 8.28296 24.7747C10.4872 20.0202 15.1481 17.1259 22.2657 16.0915C26.7933 15.4544 30.1723 14.7582 32.4026 14.0029C33.9783 13.5528 35.0815 12.24 35.7123 10.0645C35.9688 13.0497 34.2548 15.3224 31.0907 16.8165C28.9526 17.8261 26.1851 18.6868 22.8072 19.4664C17.692 20.6471 14.3199 23.036 12.495 26.4853C10.8332 29.6264 10.385 33.2568 11.4183 36.6512V36.6512Z" fill="#064363"/>
<path fill-rule="evenodd" clip-rule="evenodd" d="M34.1511 41.6992C34.5241 37.0502 32.2825 35.0722 27.4264 35.7653C24.7401 32.037 25.0308 27.2506 28.5932 23.7692C29.5991 22.7862 30.9859 21.4434 32.8835 19.9007C35.7002 17.6109 37.2444 15.3854 37.3713 12.9621C37.5267 9.99617 36.1558 7.15431 33.6913 5.45575C38.0439 6.90764 41.7983 10.1493 44.9545 15.1808C47.1968 19.4214 48.0603 24.2727 47.5451 29.7348C46.9575 37.5089 42.3792 43.7411 33.8103 48.4313C33.7526 48.2911 33.8536 48.0023 34.1132 47.565C35.2099 45.5117 35.2225 43.5564 34.1511 41.6992L34.1511 41.6992Z" fill="#8CC341"/>
<path fill-rule="evenodd" clip-rule="evenodd" d="M34.1511 41.6992C34.5241 37.0502 32.2825 35.0722 27.4264 35.7653C24.7401 32.037 25.0308 27.2506 28.5932 23.7692C28.8727 23.4962 29.1816 23.1952 29.5226 22.87C26.9558 25.3702 26.5775 29.332 28.6256 32.2628C30.4838 34.3329 33.1473 35.5205 35.9469 35.5272C38.7465 35.5339 41.4158 34.359 43.2841 32.2979C46.3162 29.3837 47.7372 25.2009 47.0993 21.0683C47.6873 23.7625 47.8359 26.6514 47.5451 29.7349C46.9575 37.509 42.3792 43.7411 33.8103 48.4314C33.7526 48.2911 33.8536 48.0023 34.1132 47.565C35.2099 45.5117 35.2225 43.5565 34.1511 41.6992V41.6992Z" fill="#4D7422"/>
<path fill-rule="evenodd" clip-rule="evenodd" d="M3.31049 36.5239C3.98883 36.5239 4.66164 36.5218 5.33894 36.5218L9.27669 42.1871L13.2144 36.5218C13.8917 36.5218 14.5646 36.5239 15.2429 36.5239V49.1622H13.7006V39.1318L9.27669 44.7087L4.85278 39.1318V49.1622H3.31049V36.5239Z" fill="#064363"/>
<path fill-rule="evenodd" clip-rule="evenodd" d="M24.4954 41.7354L23.0584 41.7896L22.9728 40.2984C22.8981 38.9956 22.0497 37.9586 20.3255 37.9586C19.4236 37.9586 18.7655 38.1379 18.3539 38.4966C17.9423 38.8552 17.7352 39.2879 17.7352 39.7945C17.7352 40.2329 17.882 40.5944 18.173 40.879C18.4614 41.1608 19.2086 41.454 20.4198 41.7501C21.6311 42.0489 22.4622 42.308 22.9131 42.53C23.5659 42.8573 24.0509 43.2701 24.3629 43.7739C24.6749 44.2749 24.8296 44.8527 24.8296 45.5074C24.8296 46.1592 24.6592 46.7684 24.3157 47.3434C23.9723 47.9184 23.482 48.3652 22.8397 48.6841C22.1973 49.0029 21.4764 49.1623 20.6715 49.1623C19.6543 49.1623 18.8022 49 18.1153 48.6784C16.6874 48.0122 15.9372 46.6132 15.8809 45.0893C15.8669 45.0676 15.8539 45.045 15.842 45.0216L15.8512 43.5547L17.2548 43.5941L17.279 44.8925C17.401 46.037 17.7955 46.8461 18.8756 47.3633C19.3869 47.6052 19.9636 47.7276 20.6033 47.7276C21.1722 47.7276 21.673 47.6365 22.1082 47.4515C22.5434 47.2665 22.8659 47.0132 23.0782 46.6915C23.2906 46.3699 23.3981 46.0197 23.3981 45.644C23.3981 45.2626 23.2958 44.9295 23.0914 44.642C22.8869 44.3574 22.5487 44.1183 22.0767 43.9219C21.7752 43.7967 21.1067 43.5974 20.0711 43.327C19.0356 43.0566 18.3119 42.8032 17.8977 42.5641C17.3603 42.2567 16.9618 41.8753 16.6996 41.4227C16.4348 40.9701 16.3037 40.4606 16.3037 39.8998C16.3037 39.2793 16.4662 38.7015 16.7887 38.1663C17.1112 37.6284 17.5805 37.2213 18.2018 36.9424C18.8206 36.6634 19.5101 36.5239 20.2678 36.5239C21.1015 36.5239 21.8382 36.6691 22.4752 36.9623C23.1123 37.2526 23.602 37.6829 23.946 38.2517C24.4739 39.1245 24.4394 40.7118 24.4954 41.7354L24.4954 41.7354Z" fill="#064363"/>
<path fill-rule="evenodd" clip-rule="evenodd" d="M33.0757 41.7354L31.6386 41.7896L31.5531 40.2984C31.4784 38.9956 30.63 37.9586 28.9057 37.9586C28.0038 37.9586 27.3458 38.1379 26.9342 38.4966C26.5226 38.8552 26.3155 39.2879 26.3155 39.7945C26.3155 40.2329 26.4623 40.5944 26.7533 40.879C27.0417 41.1608 27.7889 41.454 29.0001 41.7501C30.2113 42.0489 31.0424 42.308 31.4934 42.53C32.1462 42.8573 32.6312 43.2701 32.9432 43.7739C33.2551 44.2749 33.4098 44.8527 33.4098 45.5074C33.4098 46.1592 33.2394 46.7684 32.896 47.3434C32.5525 47.9184 32.0623 48.3652 31.4199 48.6841C30.7776 49.0029 30.0566 49.1623 29.2518 49.1623C28.2345 49.1623 27.3825 49 26.6956 48.6784C25.2677 48.0122 24.5174 46.6132 24.4612 45.0893C24.4471 45.0676 24.4341 45.045 24.4222 45.0216L24.4314 43.5547L25.835 43.5941L25.8593 44.8925C25.9812 46.037 26.3757 46.8461 27.4559 47.3633C27.9671 47.6052 28.5439 47.7276 29.1836 47.7276C29.7525 47.7276 30.2533 47.6365 30.6885 47.4515C31.1237 47.2665 31.4462 47.0132 31.6585 46.6915C31.8709 46.3699 31.9784 46.0197 31.9784 45.644C31.9784 45.2626 31.8761 44.9295 31.6716 44.642C31.4671 44.3574 31.1289 44.1183 30.657 43.9219C30.3555 43.7967 29.687 43.5974 28.6514 43.327C27.6158 43.0566 26.8922 42.8032 26.478 42.5641C25.9405 42.2567 25.542 41.8753 25.2798 41.4227C25.0151 40.9701 24.884 40.4606 24.884 39.8998C24.884 39.2793 25.0465 38.7015 25.369 38.1663C25.6914 37.6284 26.1607 37.2213 26.7821 36.9424C27.4008 36.6634 28.0903 36.5239 28.848 36.5239C29.6817 36.5239 30.4184 36.6691 31.0555 36.9623C31.6926 37.2526 32.1822 37.6829 32.5263 38.2517C33.0541 39.1245 33.0197 40.7118 33.0756 41.7354L33.0757 41.7354Z" fill="#064363"/>
</svg>
